<?xml version="1.0" encoding="utf-8"?>
<!-- Generator: Adobe Illustrator 16.0.3, SVG Export Plug-In . SVG Version: 6.00 Build 0)  -->
<!DOCTYPE svg PUBLIC "-//W3C//DTD SVG 1.1//EN" "http://www.w3.org/Graphics/SVG/1.1/DTD/svg11.dtd">
<svg version="1.1" id="Layer_1" xmlns="http://www.w3.org/2000/svg" xmlns:xlink="http://www.w3.org/1999/xlink" x="0px" y="0px"
	 width="99.998px" height="69.337px" viewBox="-24.9 -16.811 99.998 69.337" enable-background="new -24.9 -16.811 99.998 69.337"
	 xml:space="preserve">
<g>
	<g>
		<g>
			<path fill="#FFFFFF" d="M3.872,25.169c-5.659,1.419-8.962,6.606-8.018,12.268c1.415,5.662,6.604,8.96,12.265,8.02
				c5.659-1.418,8.962-6.605,8.018-12.268C15.193,27.528,9.533,23.755,3.872,25.169z M8.119,43.568
				c-4.717,0.944-8.964-1.889-9.906-6.605c-0.944-4.717,1.886-8.96,6.604-9.904c4.717-0.944,8.962,1.889,9.906,6.606
				C15.193,37.906,12.364,42.623,8.119,43.568z"/>
			<path fill="#FFFFFF" d="M20.854,33.663L19.91,30.36l2.359-2.833l-2.359-3.298l-3.772,0.939l-2.359-1.884l0.472-3.773
				l-4.245-1.414l-2.358,2.828H5.289l-1.887-3.303l-4.717,0.944l-0.472,3.773l-0.472,0.944l-3.301-1.889l-3.303,3.772l1.886,3.303
				l-0.472,1.414l-3.773,0.475l-0.472,5.187l3.303,1.414l0.472,1.42l-2.831,2.828l2.359,4.248l3.772-0.944l1.415,1.413l-0.47,3.773
				l4.245,1.889l2.358-2.832l2.831,0.475l1.886,3.298l4.245-0.47l0.472-3.771l2.829-1.416l3.303,1.885l2.831-2.83l-1.886-3.303
				l1.414-3.303l3.773-0.47l0.472-3.773L20.854,33.663z M8.589,46.396c-6.131,1.418-12.263-2.359-13.679-8.96
				c-1.414-6.131,2.359-12.268,8.962-13.682c6.133-1.414,12.265,2.358,13.679,8.964C18.968,38.85,14.723,44.982,8.589,46.396z"/>
			<path fill="#FFFFFF" d="M67.551-1.715l1.417-4.248l-5.188-4.717l-3.773,1.419l-4.717-2.358l-0.943-4.248l-7.077-0.944
				l-2.359,3.773l-5.187,0.944l-3.303-2.358l-6.131,3.303l0.472,4.248L26.985-3.13H22.74l-3.3,6.602l2.829,3.303l-0.942,5.187
				l-3.303,1.889l1.417,7.076l4.245,0.944l2.358,4.717l-1.417,4.243l5.189,4.717l3.772-1.416l4.717,2.359l0.944,4.247l7.076,0.94
				l2.359-3.773l5.187-0.943l3.303,2.832l6.131-3.303l-0.47-4.248l3.772-3.772h4.246l3.303-6.602l-3.303-3.303l0.472-5.187
				l3.772-2.359l-1.414-7.076l-4.244-0.943L67.551-1.715z M54.816,28.002c-8.49,4.717-19.339,1.415-23.586-7.076
				c-4.717-8.49-1.414-19.338,7.076-23.585c8.492-4.717,19.34-1.415,23.586,7.076C66.609,12.906,63.307,23.285,54.816,28.002z"/>
			<path fill="#FFFFFF" d="M38.778-1.715c-8.018,4.243-10.849,14.151-6.604,21.697c4.245,8.02,14.151,10.849,21.697,6.606
				c8.02-4.247,10.852-14.151,6.605-21.702C56.703-3.13,46.798-5.963,38.778-1.715z M52.93,24.699
				c-6.604,3.773-15.093,0.944-18.396-5.662c-3.772-6.601-0.944-15.091,5.66-18.394C46.799-3.13,55.29-0.301,58.59,6.305
				C62.363,12.906,60.005,20.926,52.93,24.699z"/>
			<path fill="#FFFFFF" d="M-14.052-3.604c-3.773,0.944-6.131,4.717-5.187,8.49c0.942,3.777,4.715,6.136,8.49,5.191
				c3.773-0.944,6.131-4.717,5.189-8.49C-6.504-1.715-10.277-4.548-14.052-3.604z M-11.222,8.663
				c-2.831,0.47-5.662-0.944-6.131-3.777c-0.472-2.829,0.942-5.657,3.773-6.131c2.831-0.47,5.662,0.944,6.131,3.773
				C-6.504,5.361-8.391,7.719-11.222,8.663z"/>
			<path fill="#FFFFFF" d="M-2.259,2.528l-0.472-2.359l1.886-1.884l-1.414-2.359l-2.359,0.47l-2.358-1.415l0.472-2.358l-2.831-0.944
				l-1.887,1.889h-1.886l-1.417-2.358l-3.301,0.944v2.828l-0.944,0.47l-2.358-0.94l-2.359,2.358l1.417,2.359v0.47l-2.358,0.47
				L-24.9,3.472l2.358,0.944V5.36l-1.886,1.884l1.414,2.833l2.359-0.474l0.944,0.944l0.472,3.303l2.828,1.414l1.887-1.884
				l1.889,0.47l1.414,2.359l2.831-0.47v-2.358l1.886-0.944l2.358,0.944l1.887-1.889l-1.415-2.829l0.942-2.358l2.358-0.475
				l0.472-2.829L-2.259,2.528z M-10.75,11.492c-4.245,0.944-8.962-1.889-9.906-6.131c-0.942-4.248,1.886-8.964,6.131-9.909
				c4.247-0.94,8.964,1.889,9.906,6.136C-3.674,6.305-6.032,10.548-10.75,11.492z"/>
		</g>
	</g>
</g>
</svg>
