<?xml version="1.0" encoding="utf-8"?>
<!-- Generator: Adobe Illustrator 16.0.3, SVG Export Plug-In . SVG Version: 6.00 Build 0)  -->
<!DOCTYPE svg PUBLIC "-//W3C//DTD SVG 1.1//EN" "http://www.w3.org/Graphics/SVG/1.1/DTD/svg11.dtd">
<svg version="1.1" id="Layer_1" xmlns="http://www.w3.org/2000/svg" xmlns:xlink="http://www.w3.org/1999/xlink" x="0px" y="0px"
	 width="100px" height="82.052px" viewBox="66.747 182.437 100 82.052" enable-background="new 66.747 182.437 100 82.052"
	 xml:space="preserve">
<g>
	<g>
		<path fill="#FFFFFF" d="M85.122,213.634c-1.282,0-2.564,1.282-2.564,2.564c0,1.282,1.282,2.564,2.564,2.564h26.923
			c1.282,0,2.564-1.282,2.564-2.564c0-1.282-1.282-2.564-2.564-2.564H85.122L85.122,213.634z"/>
		<path fill="#FFFFFF" d="M85.122,225.601c-1.282,0-2.564,1.282-2.564,2.564c0,1.282,1.282,2.564,2.564,2.564h26.923
			c1.282,0,2.564-1.282,2.564-2.564c0-1.282-1.282-2.564-2.564-2.564H85.122L85.122,225.601z"/>
		<path fill="#FFFFFF" d="M85.122,201.241c-1.282,0-2.564,1.282-2.564,2.564c0,1.282,1.282,2.564,2.564,2.564h36.752
			c1.282,0,2.564-1.282,2.564-2.564c0-1.282-1.282-2.564-2.564-2.564H85.122L85.122,201.241z"/>
		<path fill="#FFFFFF" d="M150.08,220.473c-0.427-0.429-0.854-0.856-0.854-1.284c0-0.427,0-0.854,0-1.709
			c0-0.855,0.427-2.137,0-2.991c-0.427-0.855-1.709-0.855-2.564-0.855c-0.427,0-1.283,0-1.71-0.427
			c-0.428,0-0.428-0.854-0.855-1.282c-0.427-0.854-0.854-2.137-1.709-2.137h-0.427c-0.855,0-1.282,0.427-2.137,0.854
			c-0.427,0.428-1.282,0.855-1.709,0.855s-0.854-0.427-1.709-0.855c-0.855-0.427-1.282-0.854-2.137-0.854h-0.427
			c-0.855,0.427-1.282,1.282-1.709,2.137c-0.427,0.427-0.427,1.282-0.855,1.282c-0.427,0.427-0.855,0.427-1.709,0.427
			s-2.137,0-2.564,0.855c-0.427,0.854-0.427,1.709,0,2.991c0,0.427,0.427,1.282,0,1.709c0,0.428-0.427,0.855-0.854,1.284
			c-0.854,0.854-1.709,1.282-1.709,2.564c0,0.854,0.855,1.709,1.709,2.564c0.427,0.427,0.854,0.854,0.854,1.282s0,0.855,0,1.709
			s-0.427,2.137,0,2.991s1.709,0.854,2.564,0.854c0.427,0,1.282,0,1.709,0.427c0.428,0,0.428,0.855,0.855,1.282
			c0.427,0.854,0.854,2.137,1.709,2.137h0.427c0.854,0,1.282-0.428,2.137-0.855c0.427-0.427,1.282-0.854,1.709-0.854
			s0.854,0.427,1.709,0.854c0.854,0.427,1.282,0.855,2.137,0.855h0.427c0.854-0.428,1.282-1.282,1.709-2.137
			c0.427-0.427,0.427-1.282,0.855-1.282c0.427-0.427,0.854-0.427,1.71-0.427c0.855,0,2.137,0,2.564-0.854s0.427-1.709,0-2.991
			c0-0.427-0.427-1.282,0-1.709c0-0.427,0.427-0.854,0.854-1.282c0.855-0.855,1.709-1.282,1.709-2.564
			C151.362,221.755,150.507,220.9,150.08,220.473L150.08,220.473z M137.687,227.738c-2.564,0-5.128-2.137-5.128-5.128
			c0-2.566,2.137-5.13,5.128-5.13c2.564,0,5.128,2.137,5.128,5.13C142.814,225.601,140.678,227.738,137.687,227.738L137.687,227.738
			z"/>
	</g>
	<path fill="#FFFFFF" d="M165.892,188.42c-0.427-1.282-0.854-2.991-2.137-3.846c-1.282-1.282-3.419-2.137-5.128-2.137h-39.316
		H74.439c-4.274,0-7.692,3.418-7.692,7.692v11.112v45.725c0,0.428,0,0.855,0,1.709c0.427,2.139,1.709,3.848,2.991,4.703
		c1.282,0.854,2.563,1.282,4.274,1.282h39.315h17.949v8.974c0,0.428,0,0.428,0.428,0.855c0.427,0,0.427,0,0.854,0l5.555-5.128
		l5.555,5.128h0.427h0.427c0.428,0,0.428-0.427,0.428-0.855v-8.974h14.103c4.274,0,7.692-3.418,7.692-7.694v-11.11v-45.727
		C165.892,189.275,165.892,188.847,165.892,188.42z M158.626,235.856v11.11h-14.103v-8.546c-0.427,0.855-0.854,1.282-2.136,1.709
		c-0.427,0-0.855,0-0.855,0c-1.282,0-2.136-0.427-2.991-0.854c-0.427,0-0.427-0.428-0.854-0.428c0,0-0.427,0.428-0.854,0.428
		c-0.855,0.427-1.709,0.854-2.991,0.854c-0.427,0-0.855,0-0.855,0c-0.854-0.427-1.71-0.854-2.137-1.709v8.546h-17.521H74.012
		v-45.725v-11.112h44.872h39.315v45.727H158.626z"/>
</g>
</svg>
