<?xml version="1.0" encoding="utf-8"?>
<!-- Generator: Adobe Illustrator 16.0.3, SVG Export Plug-In . SVG Version: 6.00 Build 0)  -->
<!DOCTYPE svg PUBLIC "-//W3C//DTD SVG 1.1//EN" "http://www.w3.org/Graphics/SVG/1.1/DTD/svg11.dtd">
<svg version="1.1" id="Layer_1" xmlns="http://www.w3.org/2000/svg" xmlns:xlink="http://www.w3.org/1999/xlink" x="0px" y="0px"
	 width="100px" height="117.947px" viewBox="-14.35 7.133 100 117.947" enable-background="new -14.35 7.133 100 117.947"
	 xml:space="preserve">
<g>
	<g>
		<g>
			<g>
				<path fill="#FFFFFF" d="M36.077,91.752c-9.403-3.422-11.11,3.414-8.547,4.273c2.566,1.703,6.84,5.976,14.532,13.671
					c12.821,13.672,19.657,15.383,19.657,15.383l23.931-4.272v-18.806c0,0,0-9.398-3.418-15.382
					c-2.563-3.414-5.984-8.548-10.258-7.688c-4.27,0.851-3.417,0.851-3.417,0.851s-2.563-1.711-5.125,0
					c-2.566,1.711-3.423,0.852-3.423,0.852s-1.707-1.702-4.272,0c-4.273,1.712-5.125,0-5.125,0s-3.422-5.977-5.985-10.25
					c-2.563-4.272-5.129-9.406-9.403-7.695c-3.418,1.711-3.418,5.984,0.856,12.82c11.109,20.518,11.109,23.08,11.109,23.08
					s0,0-0.851,0C44.624,98.588,41.206,93.456,36.077,91.752z"/>
			</g>
			<path fill="#FFFFFF" d="M36.932,113.121c-5.985-6.846-11.11-11.971-12.821-12.822c0,0-0.856,0-0.856-0.858H-4.092V17.391h65.81
				v56.409l0,0c0.855,0,2.563,0,3.419,0.859l0,0c1.711-0.859,3.418-0.859,5.128-0.859c0.855,0,1.707,0,2.563,0V15.68
				c0-5.125-3.417-8.547-8.546-8.547H-5.804c-5.125,0-8.546,3.422-8.546,8.547v92.306c0,5.135,3.421,8.547,8.546,8.547H40.35
				C39.495,115.682,38.643,113.971,36.932,113.121z"/>
		</g>
	</g>
</g>
</svg>
