<?xml version="1.0" encoding="utf-8"?>
<!-- Generator: Adobe Illustrator 16.0.3, SVG Export Plug-In . SVG Version: 6.00 Build 0)  -->
<!DOCTYPE svg PUBLIC "-//W3C//DTD SVG 1.1//EN" "http://www.w3.org/Graphics/SVG/1.1/DTD/svg11.dtd">
<svg version="1.1" id="Layer_1" xmlns="http://www.w3.org/2000/svg" xmlns:xlink="http://www.w3.org/1999/xlink" x="0px" y="0px"
	 width="99.998px" height="94.303px" viewBox="-22.865 -22.443 99.998 94.303"
	 enable-background="new -22.865 -22.443 99.998 94.303" xml:space="preserve">
<g>
	<g>
		<g>
			<path fill="#FFFFFF" d="M60.303,12.918c-0.652,0.659-0.652,0.659-1.308,1.312c0.654,3.274,1.308,6.549,1.308,9.824
				c0,20.959-17.025,37.983-37.328,37.983c-20.956,0-37.329-17.024-37.329-37.983c0-20.958,17.029-37.984,37.329-37.984
				c11.135,0,21.611,5.238,28.159,13.099c0.656,0,0.656,0,1.312,0c0-0.651,0-0.651,0.656-1.311c1.308-3.275,1.963-5.892,2.619-7.202
				c-8.513-8.513-19.647-13.098-32.09-13.098c-25.541,0-46.496,20.958-46.496,47.147c0,26.197,20.955,47.155,46.496,47.155
				c25.542,0,46.498-20.958,46.498-47.155c0-3.268,0-6.542-0.652-9.165c-1.967,0-3.93-0.651-6.549-1.312
				C60.958,12.918,60.958,12.918,60.303,12.918z"/>
			<path fill="#FFFFFF" d="M41.312,25.364c-0.652,9.824-9.168,17.684-18.992,17.684c-10.476,0-18.992-8.519-18.992-18.994
				c0-10.477,8.516-18.988,18.992-18.988c3.93,0,7.205,1.305,10.479,3.273c1.311-1.311,3.274-2.622,5.894-3.934
				c0.656-0.652,1.967-0.652,2.619-1.311c-5.238-4.579-11.787-7.202-18.336-7.202c-15.717,0-28.16,12.445-28.16,28.16
				c0,15.721,12.443,28.159,28.16,28.159c15.717,0,28.16-12.438,28.16-28.159c0-0.652,0-1.964,0-2.616
				c-0.652,0.651-1.308,0.651-1.963,1.305C45.897,23.4,43.278,24.705,41.312,25.364z"/>
			<path fill="#FFFFFF" d="M76.675,1.789c-1.307-2.622-3.93-4.585-9.168-2.622c3.931-3.274,3.931-7.202,1.967-9.171
				c-1.967-2.616-5.896-3.274-9.824,0.659c-1.311,1.311-3.273,8.513-4.585,11.787C50.483,3.753,44.586,5.717,40.003,7.68
				c-7.205,3.933-8.513,6.549-7.86,9.171l-2.619,1.311c-1.308-2.622-4.583-3.934-7.857-3.934c-5.241,0-9.168,3.934-9.168,9.171
				c0,5.238,3.927,9.165,9.168,9.165c5.238,0,9.168-3.927,9.168-9.165c0-0.659,0-1.963-0.656-2.622l3.274-1.312l0,0
				c1.964,1.971,5.238,1.971,11.788-1.963c4.585-2.615,9.168-7.201,12.442-10.476c3.93,0.652,10.479,2.616,12.443,1.963
				C76.675,8.339,77.987,5.064,76.675,1.789z"/>
		</g>
	</g>
</g>
</svg>
