<?xml version="1.0" encoding="utf-8"?>
<!-- Generator: Adobe Illustrator 16.0.3, SVG Export Plug-In . SVG Version: 6.00 Build 0)  -->
<!DOCTYPE svg PUBLIC "-//W3C//DTD SVG 1.1//EN" "http://www.w3.org/Graphics/SVG/1.1/DTD/svg11.dtd">
<svg version="1.1" id="Layer_1" xmlns="http://www.w3.org/2000/svg" xmlns:xlink="http://www.w3.org/1999/xlink" x="0px" y="0px"
	 width="99.999px" height="72.667px" viewBox="-26.45 -17.182 99.999 72.667" enable-background="new -26.45 -17.182 99.999 72.667"
	 xml:space="preserve">
<g>
	<g>
		<path fill="#FFFFFF" d="M73.549,0.052c0,0-1.713-1.144-3.43-2.282c-0.569,0-1.141-0.575-1.141-0.575v-6.284l-1.145-0.575
			c0,0-1.141-0.569-2.857-1.139c-0.568,0-1.141-0.575-1.141-0.575v-3.426h-1.145c-0.571,0-8.571-2.288-20-1.713
			c-10.285,0.569-16.571,4.57-18.856,6.284c-2.285-1.713-9.144-6.284-19.428-6.858c-11.429-0.569-18.857,1.713-19.429,1.713
			l-1.141,0.575v3.426c-0.572,0-1.144,0-1.144,0.575c-1.713,0.569-2.857,1.139-2.857,1.139l-1.141,0.575v5.714
			c-0.572,0-1.144,0.569-1.716,0.569c-1.142,0.575-2.857,1.713-2.857,1.713l-0.572,0.575V54.34l2.288-1.713
			c0,0,8.569-6.858,26.856-8.002c8-0.569,16.571,2.288,19.429,3.433c0.572,0,0.572,0,0.572,0.568l0,0h1.141l0,0h0.572
			c2.857-1.145,10.857-4.57,19.428-3.426c16.571,1.138,26.855,7.996,26.855,8.566l2.285,1.719V1.196L73.549,0.052z M26.12,38.909
			V-3.374c0,0,5.146-6.858,18.288-6.858c9.141,0,14.285,1.144,14.285,1.144V33.77c0,0-10.288-2.857-22.285,0
			C29.549,36.052,26.12,38.909,26.12,38.909z M46.693,36.052c8,0,16,2.288,16,2.288V-5.662c0,0,0.572,0,1.144,0
			c0.572,0,1.142,0.575,1.142,0.575v46.854c0,0-4.571-1.713-10.857-2.856c-16-2.857-26.856,2.288-26.856,2.288
			S35.264,36.052,46.693,36.052z M67.834,2.34l1.716,1.144v42.285l-1.716-1.145V2.34z M-21.306,45.769V3.484l1.713-1.144v42.284
			L-21.306,45.769z M-16.163,42.341V-4.518c0,0,0,0,1.141-0.569c0.572,0,1.144,0,1.144,0V38.91c0,0,7.428-2.283,15.999-2.283
			c10.857,0,19.429,5.714,19.429,5.714s-10.285-5.145-26.856-2.287C-11.593,40.622-16.163,42.341-16.163,42.341z M-11.021,33.77
			V-9.089c0,0,5.143-1.144,14.286-1.144c13.142,0,18.285,6.858,18.285,6.858v42.284c0,0-2.857-2.857-10.285-5.14
			C-0.164,30.338-11.021,33.77-11.021,33.77z"/>
	</g>
</g>
</svg>
