<?xml version="1.0" encoding="utf-8"?>
<!-- Generator: Adobe Illustrator 16.0.3, SVG Export Plug-In . SVG Version: 6.00 Build 0)  -->
<!DOCTYPE svg PUBLIC "-//W3C//DTD SVG 1.1//EN" "http://www.w3.org/Graphics/SVG/1.1/DTD/svg11.dtd">
<svg version="1.1" id="Layer_1" xmlns="http://www.w3.org/2000/svg" xmlns:xlink="http://www.w3.org/1999/xlink" x="0px" y="0px"
	 width="100px" height="71.805px" viewBox="0 30.357 100 71.805" enable-background="new 0 30.357 100 71.805" xml:space="preserve"
	>
<g>
	<g>
		<g opacity="0.99">
			<path fill="#FFFFFF" d="M2.127,77.165V34.611c0-2.125,2.13-4.254,4.257-4.254h42.552c2.127,0,4.254,2.13,4.254,4.254v42.555
				c0,0.53-0.53,1.596-1.595,1.596H3.191C2.661,78.76,2.127,78.23,2.127,77.165L2.127,77.165z"/>
			<path fill="#FFFFFF" d="M37.766,93.123c0,4.784-3.722,9.039-9.042,9.039c-4.787,0-9.041-3.719-9.041-9.039
				c0-4.79,3.722-9.044,9.041-9.044S37.766,87.804,37.766,93.123L37.766,93.123z M33.512,93.123c0-2.66-2.127-4.254-4.254-4.254
				c-2.66,0-4.257,2.125-4.257,4.254c0,2.66,2.13,4.254,4.257,4.254C31.384,97.378,33.512,95.248,33.512,93.123L33.512,93.123z
				 M21.277,84.079H1.598C1.064,84.079,0,84.609,0,85.674v4.255c0,0.534,0.532,1.6,1.597,1.6h15.956
				C17.554,88.334,19.15,85.674,21.277,84.079L21.277,84.079z M84.041,93.123c0,4.784-3.722,9.039-9.041,9.039
				c-4.787,0-9.041-3.719-9.041-9.039c0-4.79,3.722-9.044,9.041-9.044C80.32,84.079,84.041,87.804,84.041,93.123L84.041,93.123z
				 M79.787,93.123c0-2.66-2.127-4.254-4.254-4.254c-2.66,0-4.257,2.125-4.257,4.254c0,2.66,2.13,4.254,4.257,4.254
				C77.66,97.378,79.787,95.248,79.787,93.123L79.787,93.123z M100,85.674v4.255c0,0.534-0.532,1.6-1.594,1.6H86.701
				C85.64,85.674,80.853,81.419,75,81.419c-5.852,0-10.639,4.254-11.7,10.109H39.896c-0.533-2.66-1.598-5.319-3.725-6.919H58.51
				V43.655c0-1.595,1.064-2.66,2.66-2.66h13.298c3.725,0,7.446,2.125,9.573,4.784l8.513,12.769c1.065,2.131,2.127,4.254,2.127,6.385
				v19.146h3.724C99.468,84.079,100,84.609,100,85.674L100,85.674z M85.64,58.548l-6.914-10.108c-0.533-0.53-0.533-0.53-1.065-0.53
				H67.021c-0.533,0-1.595,0.53-1.595,1.595v10.109c0,0.53,0.532,1.595,1.595,1.595h17.553C85.64,60.678,86.172,59.613,85.64,58.548
				L85.64,58.548z"/>
		</g>
	</g>
</g>
</svg>
